<?xml version="1.0" encoding="UTF-8"?>
<svg id="Calque_1" viewBox="0 0 940.16 131.35" xmlns="http://www.w3.org/2000/svg"
     xmlns:xlink="http://www.w3.org/1999/xlink">
  <defs>
    <style>
      .cls-1 {
        fill: #000171;
      }

      .cls-2 {
        fill: url(#Dégradé_sans_nom_77);
      }

      .cls-3 {
        fill: url(#Dégradé_sans_nom_77-2);
      }
    </style>
    <linearGradient data-name="Dégradé sans nom 77" gradientUnits="userSpaceOnUse" id="Dégradé_sans_nom_77" x1="308.55" x2="125.66"
                    y1="48.98" y2="71.56">
      <stop offset="0" stop-color="#00d9e9"/>
      <stop offset="1" stop-color="#000171"/>
    </linearGradient>
    <linearGradient data-name="Dégradé sans nom 77" id="Dégradé_sans_nom_77-2" x1="232.21" x2="152.56" xlink:href="#Dégradé_sans_nom_77"
                    y1="58.4" y2="68.23"/>
  </defs>
  <path class="cls-1" d="M25.94,9.5v90.44h34.86v21.89H0V9.5h25.94Z"/>
  <path class="cls-1"
        d="M325.23,56.33l38.4-46.82h31.66l-45.48,53.22,49.01,59.12h-33.35l-40.25-49.85v49.85h-25.94V9.5h25.94v46.82Z"/>
  <path class="cls-1"
        d="M527.18,100.62h-42.44l-8.59,21.22h-26.95l45.31-112.34h23.75l44.3,112.34h-26.95l-8.42-21.22ZM520.1,80.75l-13.81-37.73-13.98,37.73h27.79Z"/>
  <path class="cls-1" d="M646.59,9.5v90.44h34.86v21.89h-60.8V9.5h25.94Z"/>
  <path class="cls-1" d="M768.03,9.5v112.34h-25.94V9.5h25.94Z"/>
  <path class="cls-1"
        d="M869.25,62.22l-34.86-52.72h31.16l18.53,32,18.53-32h31.16l-34.86,52.72,41.26,59.62h-31.16l-24.93-38.91-24.93,38.91h-31.16l41.26-59.62Z"/>
  <g>
    <path class="cls-2"
          d="M204.18,0h-61.74c-4.36,0-8.39,2.33-10.57,6.1l-30.87,53.47c-2.18,3.78-2.18,8.43,0,12.21l30.87,53.47c2.18,3.78,6.21,6.1,10.57,6.1h61.74c4.36,0,8.39-2.33,10.57-6.1l30.87-53.47c2.18-3.78,2.18-8.43,0-12.21l-30.87-53.47c-2.18-3.78-6.21-6.1-10.57-6.1ZM195.19,115.78h-43.76c-4.36,0-8.39-2.33-10.57-6.1l-21.88-37.89c-2.18-3.78-2.18-8.43,0-12.21l21.88-37.89c2.18-3.78,6.21-6.1,10.57-6.1h43.76c4.36,0,8.39,2.33,10.57,6.1l21.88,37.89c2.18,3.78,2.18,8.43,0,12.21l-21.88,37.89c-2.18,3.78-6.21,6.1-10.57,6.1Z"/>
    <path class="cls-3"
          d="M205.3,66.46c-.41,16.97-14.25,30.81-31.23,31.21-18.02.42-32.76-14.07-32.76-31.99,0,0,0-.02,0-.03,0-1.19,1.3-1.9,2.34-1.33,1.87,1.03,4.07,1.53,6.41,1.3,5.24-.5,9.47-4.75,9.94-10,.46-5.09-2.53-9.54-6.89-11.3-1.26-.51-1.52-2.19-.48-3.07,5.58-4.73,12.8-7.58,20.68-7.58,17.93,0,32.42,14.75,31.99,32.78Z"/>
  </g>
</svg>
